<svg id="visual" viewBox="0 0 900 600" width="900" height="600" xmlns="http://www.w3.org/2000/svg" xmlns:xlink="http://www.w3.org/1999/xlink" version="1.1"><path d="M0 211L39 211L39 175L78 175L78 265L117 265L117 169L157 169L157 175L196 175L196 307L235 307L235 169L274 169L274 103L313 103L313 109L352 109L352 181L391 181L391 205L430 205L430 121L470 121L470 109L509 109L509 193L548 193L548 229L587 229L587 139L626 139L626 85L665 85L665 241L704 241L704 121L743 121L743 211L783 211L783 133L822 133L822 169L861 169L861 205L900 205L900 259L900 0L900 0L861 0L861 0L822 0L822 0L783 0L783 0L743 0L743 0L704 0L704 0L665 0L665 0L626 0L626 0L587 0L587 0L548 0L548 0L509 0L509 0L470 0L470 0L430 0L430 0L391 0L391 0L352 0L352 0L313 0L313 0L274 0L274 0L235 0L235 0L196 0L196 0L157 0L157 0L117 0L117 0L78 0L78 0L39 0L39 0L0 0Z" fill="#0f172a"></path><path d="M0 313L39 313L39 271L78 271L78 355L117 355L117 229L157 229L157 295L196 295L196 355L235 355L235 223L274 223L274 193L313 193L313 199L352 199L352 295L391 295L391 313L430 313L430 229L470 229L470 169L509 169L509 307L548 307L548 337L587 337L587 205L626 205L626 139L665 139L665 361L704 361L704 193L743 193L743 325L783 325L783 217L822 217L822 271L861 271L861 289L900 289L900 301L900 257L900 203L861 203L861 167L822 167L822 131L783 131L783 209L743 209L743 119L704 119L704 239L665 239L665 83L626 83L626 137L587 137L587 227L548 227L548 191L509 191L509 107L470 107L470 119L430 119L430 203L391 203L391 179L352 179L352 107L313 107L313 101L274 101L274 167L235 167L235 305L196 305L196 173L157 173L157 167L117 167L117 263L78 263L78 173L39 173L39 209L0 209Z" fill="#172b58"></path><path d="M0 445L39 445L39 319L78 319L78 439L117 439L117 355L157 355L157 355L196 355L196 415L235 415L235 373L274 373L274 313L313 313L313 325L352 325L352 379L391 379L391 415L430 415L430 313L470 313L470 307L509 307L509 427L548 427L548 403L587 403L587 283L626 283L626 301L665 301L665 421L704 421L704 367L743 367L743 403L783 403L783 325L822 325L822 319L861 319L861 445L900 445L900 427L900 299L900 287L861 287L861 269L822 269L822 215L783 215L783 323L743 323L743 191L704 191L704 359L665 359L665 137L626 137L626 203L587 203L587 335L548 335L548 305L509 305L509 167L470 167L470 227L430 227L430 311L391 311L391 293L352 293L352 197L313 197L313 191L274 191L274 221L235 221L235 353L196 353L196 293L157 293L157 227L117 227L117 353L78 353L78 269L39 269L39 311L0 311Z" fill="#26408a"></path><path d="M0 487L39 487L39 421L78 421L78 505L117 505L117 427L157 427L157 409L196 409L196 451L235 451L235 475L274 475L274 409L313 409L313 391L352 391L352 427L391 427L391 499L430 499L430 361L470 361L470 385L509 385L509 481L548 481L548 445L587 445L587 367L626 367L626 391L665 391L665 481L704 481L704 415L743 415L743 439L783 439L783 421L822 421L822 421L861 421L861 487L900 487L900 475L900 425L900 443L861 443L861 317L822 317L822 323L783 323L783 401L743 401L743 365L704 365L704 419L665 419L665 299L626 299L626 281L587 281L587 401L548 401L548 425L509 425L509 305L470 305L470 311L430 311L430 413L391 413L391 377L352 377L352 323L313 323L313 311L274 311L274 371L235 371L235 413L196 413L196 353L157 353L157 353L117 353L117 437L78 437L78 317L39 317L39 443L0 443Z" fill="#3f54bd"></path><path d="M0 601L39 601L39 601L78 601L78 601L117 601L117 601L157 601L157 601L196 601L196 601L235 601L235 601L274 601L274 601L313 601L313 601L352 601L352 601L391 601L391 601L430 601L430 601L470 601L470 601L509 601L509 601L548 601L548 601L587 601L587 601L626 601L626 601L665 601L665 601L704 601L704 601L743 601L743 601L783 601L783 601L822 601L822 601L861 601L861 601L900 601L900 601L900 473L900 485L861 485L861 419L822 419L822 419L783 419L783 437L743 437L743 413L704 413L704 479L665 479L665 389L626 389L626 365L587 365L587 443L548 443L548 479L509 479L509 383L470 383L470 359L430 359L430 497L391 497L391 425L352 425L352 389L313 389L313 407L274 407L274 473L235 473L235 449L196 449L196 407L157 407L157 425L117 425L117 503L78 503L78 419L39 419L39 485L0 485Z" fill="#6366f1"></path></svg>