<?xml version="1.0" encoding="utf-8"?>
<!-- Generator: Adobe Illustrator 26.0.3, SVG Export Plug-In . SVG Version: 6.00 Build 0)  -->
<svg version="1.1" id="Layer_1" xmlns="http://www.w3.org/2000/svg" xmlns:xlink="http://www.w3.org/1999/xlink" x="0px" y="0px"
	 viewBox="0 0 538.7 579.8" style="enable-background:new 0 0 538.7 579.8;" xml:space="preserve">
<style type="text/css">
	.st0{fill:#6C63FF;}
	.st1{fill:#2F2E41;}
	.st2{fill:#FFB6B6;}
	.st3{fill:#FFB8B8;}
	.st4{fill:#45457B;}
</style>
<path class="st0" d="M506.8,441.5H101.8c-7.5,0-13.6-6.1-13.6-13.6V98.1c0-7.5,6.1-13.6,13.6-13.6h404.9c7.5,0,13.6,6.1,13.6,13.6
	v329.7C520.4,435.4,514.3,441.4,506.8,441.5z"/>
<path class="st1" d="M467.4,432.3H111c-7.5,0-13.6-6.1-13.6-13.6V107.3c0-7.5,6.1-13.6,13.6-13.6h386.6c7.5,0,13.6,6.1,13.6,13.6
	v281.2C511.2,412.7,491.6,432.3,467.4,432.3L467.4,432.3z"/>
<path class="st0" d="M369.5,164.1H206.7c-1.9,0-3.5-1.6-3.5-3.5s1.6-3.5,3.5-3.5h162.8c1.9,0,3.5,1.6,3.5,3.5
	S371.4,164.1,369.5,164.1L369.5,164.1z"/>
<path class="st0" d="M451.9,201.6H206.7c-1.9,0-3.5-1.6-3.5-3.5s1.6-3.5,3.5-3.5h245.1c1.9,0,3.5,1.6,3.5,3.5
	S453.8,201.6,451.9,201.6L451.9,201.6z"/>
<path class="st0" d="M451.9,239H206.7c-1.9,0-3.5-1.6-3.5-3.5s1.6-3.5,3.5-3.5h245.1c1.9,0,3.5,1.6,3.5,3.5S453.8,239,451.9,239
	L451.9,239z"/>
<path class="st0" d="M451.9,276.4H206.7c-1.9,0-3.5-1.6-3.5-3.5s1.6-3.5,3.5-3.5h245.1c1.9,0,3.5,1.6,3.5,3.5
	S453.8,276.4,451.9,276.4L451.9,276.4z"/>
<path class="st0" d="M451.9,313.9H206.7c-1.9,0-3.5-1.6-3.5-3.5s1.6-3.5,3.5-3.5h245.1c1.9,0,3.5,1.6,3.5,3.5
	S453.8,313.9,451.9,313.9L451.9,313.9z"/>
<path class="st0" d="M440.8,373.6c-9.8,0-17.8-8-17.8-17.8s8-17.8,17.8-17.8c9.8,0,17.8,8,17.8,17.8l0,0
	C458.6,365.6,450.7,373.6,440.8,373.6z"/>
<path class="st1" d="M450.8,355l-5-7.4c-0.5-0.7-1.4-0.9-2.1-0.4c-0.7,0.5-0.9,1.4-0.4,2.1l0,0l3.3,4.8h-12.8c-1,0-1.8,0.8-1.8,1.7
	s0.8,1.8,1.7,1.8h12.9l-3.4,5c-0.5,0.7-0.3,1.6,0.4,2.1c0.7,0.5,1.6,0.3,2.1-0.4l5-7.4C451.2,356.3,451.2,355.6,450.8,355z"/>
<path class="st1" d="M536.9,35.9H71.7c-1,0-1.8-0.8-1.8-1.8c0-1,0.8-1.7,1.8-1.8h465.3c1,0,1.8,0.8,1.8,1.8
	C538.7,35.1,537.9,35.9,536.9,35.9z"/>
<path class="st2" d="M129.9,392c2.7-2.3,3-6.3,0.8-8.9c-0.2-0.3-0.5-0.6-0.8-0.8L126,349l-12.2,2.8l6.8,31.6
	c-2.1,2.8-1.5,6.8,1.4,8.9C124.4,394.1,127.6,393.9,129.9,392L129.9,392z"/>
<path class="st0" d="M128.6,354.4l-14.2,8.8c0,0-0.9,5.2-1.8-7.8c-0.1-1.4,0.8-3.7,0.7-5.1c-0.1-1.6-4.6-2.3-4.7-3.9
	c-0.1-1.1,1.2-2.1,1.1-3.3c-0.1-1.7-0.3-3.4-0.4-5.1c-0.1-1.4-1.7-2.3-1.8-3.6c-0.1-1.4,1.2-3.2,1.2-4.5c-0.7-9.7,1.8-34.1,1.8-34.6
	c-0.2-1.2-0.7-2.4-1.5-3.4l0.8-2.3l-0.5-4.2c-0.7-5.6,0.5-11.2,3.3-16.1l0,0l3.6-2.4l16.6,27.9C125.8,319.2,121.3,328.6,128.6,354.4
	z"/>
<polygon class="st2" points="117.6,562.6 126.1,562.6 130.2,529.5 117.6,529.5 "/>
<path class="st1" d="M114.8,556.7l13.7-0.8v5.9l13,9c1.7,1.1,2.1,3.4,0.9,5.1c-0.7,1-1.8,1.6-3,1.6h-16.3l-2.8-5.8l-1.1,5.8H113
	L114.8,556.7z"/>
<polygon class="st2" points="165.7,562.6 174.3,562.6 178.3,529.5 165.7,529.5 "/>
<path class="st1" d="M162.9,556.7l13.7-0.8v5.9l13,9c1.7,1.1,2.1,3.4,0.9,5.1c-0.7,1-1.8,1.6-3,1.6h-16.3l-2.8-5.8l-1.1,5.8h-6.1
	L162.9,556.7z"/>
<path class="st1" d="M113.9,534.1L113.9,534.1l1.7-78.7c-2.2-4.2-2.1-9.2,0.2-13.3l0.2-0.4l-0.6-2.8c-0.8-3.6-0.4-7.4,1-10.9
	l1.5-50.1c-5.5-35.6,20.7-58.8,20.7-58.8h39.2l8.4,28.9c5.6,54.2,4.6,132-4.3,183.2l0.2,0.1c0.9,0.5,1.3,1.7,0.8,2.7
	c-0.4,1.2-1.4,1.9-2.3,1.6l-20.7-0.7c-0.9-0.5-1.3-1.7-0.8-2.7c0.4-1.2,1.4-1.9,2.3-1.6l1.4,0.7l-1.5-3c-1.8-3.6-1.4-7.9,0.9-11.2
	l0,0l-0.3-6.5l0,0c-2.2-2.6-2.9-6.1-1.9-9.3l1.4-4.6l-1.6-42.2l0.3-9.5l-0.7-10.7l-3.2-48.3l-12,59.4l-12.3,89.3
	c0.6,0.5,0.9,1.4,0.7,2.2c-0.3,1.1-1.2,1.8-2.3,1.8h-16.7c-1.3,0-2.3-1-2.3-2.3c0-0.2,0-0.4,0.1-0.6
	C112,534.7,112.9,534.1,113.9,534.1z"/>
<path class="st2" d="M209.2,379.1c2.2-2.7,1.8-6.7-0.9-8.9c-0.3-0.2-0.6-0.4-0.9-0.6l-10.1-32l-11.5,5.1l12.7,29.7
	c-1.5,3.2-0.1,7,3.1,8.5C204.2,382.1,207.4,381.4,209.2,379.1L209.2,379.1z"/>
<path class="st0" d="M167.6,277.5c0,0,11.5,40.8,11,44.9c-1.1,8.5-54.1,34.6-58,23l0.5-3.8c-2-4,10.2-19.8,10.7-21.8
	c0.7-2.6-2.6-11.3-2.6-11.3s2.3-7.9,2-12.8c-0.4-4.9-1.5-4.1-5.7-7.2c-4.1-3-10.9-17-10.9-17s3-13.6,3-16.2s12.4-7.1,13.9-8.6
	c0.7-0.9,1.2-1.8,1.6-2.8c0.3-0.6,0.1-2,0.4-2.7c0.2-0.5,0.9-0.2,1.2-0.6c0.2-0.5,0-1,0.2-1.4c0.3-0.6,0.9-1.1,1.2-1.7
	c1.2-2.6,2.2-4.7,2.5-4.7c0.7,0,24.9,3.4,24.9,3.4c1.3,2,2.8,3.9,4.5,5.7c2.6,2.6,15,9.1,15,9.1L167.6,277.5z"/>
<path class="st0" d="M200.2,346.2c-1.9,1.9-11.2,10.5-11.6,8.3c-0.4-2.3-0.6-2.5-2.1-3.3c-1.5-0.8-1.5-1.1-1.9-3.8
	c-0.4-2.6-3.8-5.3-3.4-6.4c0.4-1.1,0,0.3,0-0.8c0-1.1-1.1-5.3-2.6-6c-1.5-0.8-3.8-1.5-2.6-3.4c1.1-1.9-10.6-58.5-10.6-58.5
	l10.6-20.7l7.2-0.8c0,0,2.2,1.2,2.9,12.5c0,0.6,0.7,1.6,0.7,2.2c0,0.5-0.5,0.6-0.5,1.2c0,0.1,0,0.2,0,0.4c0,0.6,1.5,1,1.5,1.5
	c0,0.9,0.6,7,0.7,7.9c0.1,1,0.2,2,0.3,2.9c1,10.1,1.4,11,2.1,14.2c1,5,5.1,34.2,5.1,34.2s3,0.7,3,3.4s3.3,8,1.8,11
	C199.1,345,202.1,344.3,200.2,346.2z"/>
<circle class="st3" cx="148.9" cy="213.9" r="17.9"/>
<path class="st4" d="M110.3,251.5c-3.8-1.3-7.6-2.7-11.4-4c0.7-1.1,1.5-2.1,2.5-2.9c3.6-3,8.6-3.6,13.2-4.6c4.6-1,9.6-3.1,11.2-7.5
	c1.7-4.6-0.8-9.5-2.2-14.1c-2.2-6.5-1.9-13.6,0.7-19.9c2.7-6.3,8.3-11,15-12.7c6.6-1.5,14.1,0.9,18.2,6.4c5.4-1.6,11.2,1.1,13.5,6.3
	c1,2.4,0.9,5.1-0.4,7.4c-1.4,2.1-4.4,3.2-6.7,2l1.3-3.4c-4.1,1.4-6.7,8.8-6.2,13c0.5,4.3,3,8,5.6,11.5s5.2,7,6.3,11.2
	c1.6,6-0.6,12.6-4.5,17.4s-9.4,8.1-15.2,10.5c-4.3,1.8-8.7,3.2-13.3,4.1c0.8-1.6,1.6-3.2,2.4-4.7l-9.6,5.8c-1.9,0.2-3.7,0.3-5.6,0.3
	c-5.5,0.1-11-0.5-16.1-2.7c-5-2.2-9.4-6.2-11.2-11.3c-0.6-1.7-0.9-3.4-0.8-5.2C101.5,253.5,105.9,252.5,110.3,251.5L110.3,251.5z"/>
<ellipse class="st0" cx="89.9" cy="8.6" rx="8.5" ry="8.6"/>
<ellipse class="st0" cx="119.1" cy="8.6" rx="8.5" ry="8.6"/>
<ellipse class="st0" cx="148.3" cy="8.6" rx="8.5" ry="8.6"/>
<path class="st0" d="M181.6,15.5c-0.3,0-0.5-0.1-0.7-0.3l-5.7-5.8c-0.4-0.4-0.4-1,0-1.4l5.7-5.8c0.4-0.4,1-0.4,1.4,0
	c0.4,0.4,0.4,1,0,1.4l-5,5.1l5,5.1c0.4,0.4,0.4,1,0,1.4C182.1,15.4,181.9,15.5,181.6,15.5z"/>
<path class="st0" d="M191.2,15.5c-0.3,0-0.5-0.1-0.7-0.3c-0.4-0.4-0.4-1,0-1.4l5-5.1l-5-5.1c-0.4-0.4-0.4-1,0-1.4
	c0.4-0.4,1-0.4,1.4,0l5.7,5.8c0.4,0.4,0.4,1,0,1.4l-5.7,5.8C191.7,15.4,191.5,15.5,191.2,15.5z"/>
<path class="st0" d="M489.7,1h-10.6c-1.2,0-2.2,1-2.2,2.2v10.6c0,1.2,1,2.2,2.2,2.2h10.6c1.2,0,2.2-1,2.2-2.2V3.2
	C491.9,2,490.9,1,489.7,1z"/>
<path class="st0" d="M463.7,1h-10.6c-1.2,0-2.2,1-2.2,2.2v10.6c0,1.2,1,2.2,2.2,2.2h10.6c1.2,0,2.2-1,2.2-2.2V3.2
	C465.9,2,464.9,1,463.7,1z"/>
<path class="st0" d="M514.2,1.5h-10.6c-1.2,0-2.2,1-2.2,2.2v10.6c0,1.2,1,2.2,2.2,2.2h10.6c1.2,0,2.2-1,2.2-2.2V3.7
	C516.4,2.5,515.4,1.5,514.2,1.5z"/>
<path class="st0" d="M354.3,5.5h-84.8c-1.5,0-2.7,1.2-2.7,2.7s1.2,2.7,2.7,2.7h84.8c1.5,0,2.7-1.2,2.7-2.7S355.8,5.5,354.3,5.5z"/>
</svg>
