<?xml version="1.0" encoding="utf-8"?>
<!-- Generator: Adobe Illustrator 26.0.3, SVG Export Plug-In . SVG Version: 6.00 Build 0)  -->
<svg version="1.1" id="Layer_1" xmlns="http://www.w3.org/2000/svg" xmlns:xlink="http://www.w3.org/1999/xlink" x="0px" y="0px"
	 viewBox="0 0 881.6 587.7" style="enable-background:new 0 0 881.6 587.7;" xml:space="preserve">
<style type="text/css">
	.st0{fill:#FFB6B6;}
	.st1{fill:#2F2E41;}
	.st2{fill:#6C63FF;}
	.st3{fill:#3F3D56;}
</style>
<polygon class="st0" points="150.9,561.3 164.2,564.9 184.4,515.4 164.8,510.1 "/>
<path class="st1" d="M146.7,575.1l40.8,11.1l0.1-0.5c2.4-8.8-2.8-17.8-11.6-20.2l0,0l-5.9-7.7l-15.5,1.9l-3.6-1L146.7,575.1z"/>
<polygon class="st0" points="242.6,572.8 256.4,572.8 262.9,519.8 242.6,519.8 "/>
<path class="st1" d="M242.2,587.2l42.3,0v-0.5c0-9.1-7.4-16.5-16.5-16.5h0l-7.7-5.9l-14.4,5.9l-3.7,0L242.2,587.2z"/>
<path class="st1" d="M248.5,266.8L267,528.3l-29.7,2.6l-41.5-193.9l4.6,112.2l-16.5,88.2l-25.2-12.2l0.4-91.9L126.1,285l8.8-18.3
	L248.5,266.8z"/>
<path class="st2" d="M130.3,299.3l-0.2-0.3c-9.9-13.8,5-47,7.2-51.8l0,0c-5.5-1.8-8.9-7.2-8.3-12.9l1-8.2l1-8l-7.2-7.2l0-0.2
	l-4.1-36.2l-6-24.1c-4.6-18.5,1.1-38.1,15-51.2l13.9-2.2l16.9-16.3h27.3l9.4,8.9c17.5,3.1,20.5,2.1,35.5,20.1l-6.8,56l-1.7,7.7
	l0,10.4l4.3,4.8c3.2,3.5,4.5,8.3,3.5,12.9l-0.6,2.8l0,0c4.5,1.9,8.7,35.9,9.7,40.6l1.5,7.1c1.3,1.7,9.9,13.1,9.9,16.3
	c0,0.5-0.3,0.9-1.1,1.4c-5.8,4-29.1,32-43.4,26.3c-15.2-6.1-75.7,3-76.4,3.1L130.3,299.3z"/>
<path class="st0" d="M126.6,234.2c0,0,7-39.6-0.1-54.5l-28,2l4.3,56.5l24.5,62.7c-1.2,6,2.8,11.9,8.8,13.1c6,1.2,11.9-2.8,13.1-8.8
	c0.8-4-0.7-8.1-3.8-10.7L126.6,234.2z"/>
<path class="st2" d="M98.6,158.7l1.7-18.9c1.3-14.3,8.3-27.6,19.4-36.8l0,0c7-5.7,16.6-7,24.8-3.3l0,0c11.3,5.2,16.6,18.3,12.2,29.9
	c-6.5,17-4.1,34.9-16.8,37.1l1.4,6.5l-12.4,40.5l-35.3-4.1L98.6,158.7z"/>
<path class="st0" d="M237.4,287.9c-3.9,4.8-3.1,11.8,1.7,15.7c4.8,3.9,11.8,3.1,15.7-1.7c2.6-3.2,3.2-7.5,1.7-11.2l11.7-66.3
	l-6.9-56.2l-27.8,3.5c-4,16,10.6,53.4,10.6,53.4L237.4,287.9z"/>
<path class="st2" d="M271.6,194.7l-33.9,10.9l-13-20.3l0.1-6.7c-12.8,0.3-21.1-34.7-30.8-50c-6.6-10.5-3.9-24.4,6.1-31.7l0,0
	c7.3-5.3,17-5.9,24.9-1.6l0,0c12.7,6.8,22.1,18.4,26.2,32.2l5.4,18.2L271.6,194.7z"/>
<circle class="st0" cx="171.3" cy="42.6" r="30.3"/>
<path class="st1" d="M149.3,63.9c-0.3-0.2-0.5-0.5-0.8-0.7c0,0,0,0,0,0.1L149.3,63.9z"/>
<path class="st1" d="M196.1,10.6c-1.5-2.4-3.6-4.4-6.1-5.8c-1.7-0.8-3.5-1.5-5.3-1.9l-4.8-1.3c-2.5-0.8-5-1.3-7.5-1.5
	c-7.2-0.4-14.1,3.4-17.7,9.6c-1.4,2.6-2.6,5.8-5.4,6.7c-2.3,0.8-4.7-0.3-7.1-0.1c-2.8,0.4-5.2,2.2-6.5,4.8c-1.2,2.5-1.8,5.3-1.7,8.1
	c-0.2,12.9,5.1,25.3,14.5,34c0.8-2.1-0.5-4.3-1.5-6.3c-1-2-1.7-4.8,0.1-6.2c1.9-1.6,5,0,7.3-1.1c1.5-0.8,2.4-2.4,2.5-4.1
	c0.2-1.7,0-3.3,0.1-5c0.4-6.9,6.4-12.2,13.3-11.7c0,0,0,0,0,0c0,0,0.1,0,0.1,0c5.2,0.4,10.2,3.9,15.2,2.4c2.3-0.7,4.3-2.4,6.7-2.7
	c2.7-0.3,5.2,1.2,7.5,2.6C201.4,24.1,200.1,16.7,196.1,10.6z"/>
<path class="st3" d="M718.3,193.4c-0.2,77.4-63,140.1-140.5,139.9c-77.4-0.2-140.1-63-139.9-140.5c0.2-77.4,63-140.1,140.5-139.9
	C636.7,53,688.9,89.3,709.4,144c0.3,0.8,0.6,1.6,0.9,2.5v0c1.3,3.7,2.4,7.4,3.4,11.2C716.7,169.3,718.3,181.3,718.3,193.4z"/>
<path class="st2" d="M561.7,98.2c-12.9-7-28.2-7.6-41.6-1.7c-5.8,2.5-11.9,7.1-13.9,15.3c7.8-4.6,18,2.7,20,14.4l-0.5,0.1
	c-1.1,8.1,1.3,17,5.9,22c0.7-4.6,3.4-8.7,7.4-11c3.4-2.2,7.1-3.8,9.7-7.7c3.1-4.5,3.8-11.2,5.1-17.2S557.4,99.8,561.7,98.2z"/>
<path class="st2" d="M517.8,167.3c-2.2,3.3-5.1,5.3-7.7,7.9c-3,2.7-5,6.4-5.6,10.4c-0.3,2.8,0.2,5.7,0.1,8.6c-0.1,2.9-1,6.1-3,6.8
	c-3.1,1.1-5.4-4.6-8.6-5c-2.5-0.3-4.8,3.6-4.1,7.1s4.2,5,6.1,2.7c1.8,3,0.5,8.4-2.1,9.3c-0.3,1.9-0.6,3.8-0.8,5.6
	c-6.8-4.7-13.6-9.5-19.3-16.5c-6.4-7.6-10.4-17-11.4-26.9c-0.7-8,0.4-17.1-3.3-23.2c-2.9-4.9-7.9-6-12.5-5.7
	c-0.8,0.1-1.7,0.1-2.5,0.3c2.7-8,6-15.7,10.1-23.1c0.9-0.4,1.8-0.9,2.5-1.6c4.2-3.6,6.1-10.8,9.5-15.8c0.2-0.3,0.4-0.6,0.7-0.9
	c3.5-4.6,8.2-6.9,12.7-9.1c10-4.9,20.3-9.8,30.8-9.1l-3,0.3c-3.5,9.8-7,19.6-10.5,29.5c-0.5,1.5-1.1,3-1.6,4.5
	c-2,5.6-4,11.5-3.7,17.8c0.2,3.7,1.5,7.7,3.9,8.9c2.3,1.2,4.8-0.3,7-1.7c0.9-0.6,1.9-1.2,2.8-1.8c3.3-2.2,7.1-4.4,10.6-2.9
	c3.2,1.3,5.6,5.7,6.1,10.5C521.4,158.8,520.3,163.4,517.8,167.3z"/>
<path class="st2" d="M537.7,234.3c-9.8-6-19.6-12-29.3-18.1l0.2-0.4c-6.1,2.3-8.6,13.1-7.6,22s4.4,16.7,6.1,25.4
	c2.3,11.8,1.4,24-2.5,35.3c12.9-14.4,24.2-30.1,34-46.8c1.4-2.1,2.4-4.4,3.1-6.8c0.7-2.6,0.5-5.3-0.7-7.7
	C540,236,538.9,235,537.7,234.3z"/>
<path class="st2" d="M499.1,124.8c-1.1,2.5-1.3,5.3-0.5,7.9c1,2.1,2.7,3.7,4.9,4.5l5.4,2.7c1.8,0.9,3.7,1.8,5.6,1.1
	c2.2-0.9,3.7-4.3,3.3-7.6c-0.4-3.4-2.6-5.8-4.6-7.8c-2.8-2.8-5.6-5.6-8.4-8.4l-1.6,1.9C501.5,120.7,500.1,122.7,499.1,124.8z"/>
<path class="st2" d="M689.3,161.4c2.4,0.6,4.9,1.1,7.3,1.7c-0.4,8.2-4.5,15.8-10,18.6c-2.3,1.1-4.8,1.6-6.7,3.7
	c-1.7,1.9-2.6,5-3.4,7.9c-1.4,5.1-2.8,10.1-4.2,15.2c-1.5,5.4-3.4,11.5-7.3,13.4c-3.3,1.7-7.1-0.4-9.7-3.8
	c-2.6-3.5-4.1-8.1-5.6-12.6c0.1,4.9-2.2,9.8-5.5,11.5c-3.3,1.7-7.2,0.2-9.4-3.7c-1.6-2.8-2.2-6.4-3.8-9.2c-1.5-2.8-4.8-4.4-6.4-1.8
	c-1.1,1.7-1,4.4-1.5,6.6c-0.6,3-3,5.3-6,5.8c-2.7-0.1-5.3-1.3-7.2-3.3c-4.8-4.9-7.9-11.2-8.9-18c-0.7-3.3-0.6-6.6,0.3-9.8
	c1-3.1,3.3-5.4,5.6-4.8c1.5-3.2-1.5-7.5-4.2-7.1c-2.7,0.4-4.8,3.3-7.1,5.5c-2.2,2.2-5.3,3.9-7.6,1.6c0.1,1.7-1.2,3.1-2.9,3.2
	c-0.1,0-0.2,0-0.2,0c-1.5-0.4-2.9-1.2-4.1-2.1c-5.1-3.2-11.6-1.1-15.3,5c2.3-9.7,5.6-20.8,12.6-23.1c2.9-0.9,6-0.2,8.7-1.8
	c4.8-2.9,5.7-13.7,1.6-18.1c0.5,4.2,0.4,9.1-1.8,12c-2.2,2.9-6.9,1-6.6-3.3c-0.2,1.6-1.6,2.7-3.1,2.5c-0.9-0.1-1.7-0.6-2.2-1.4
	c-1.5-2.3-1.4-6-0.3-8.6c1.1-2.4,2.6-4.6,4.6-6.5c3.7-4,7.5-8,11.8-10.5c4.3-2.5,9.3-3.4,13.6-0.9c2.3,1.3,4.3,3.5,6.6,4.7
	c2.3,1.4,5.3,0.7,6.8-1.6c0,0,0,0,0,0c0,0,0.1-0.1,0.1-0.1c1.7-3,0.9-7.6,1.6-11.4c1.2-6.7,7.9-9.9,11.6-5.4c-2.8-0.7-5.7,2.6-6,6.6
	c-0.4,4,1.7,8,4.4,9.2c4.5,2,9-3,12.4-7.7c3.6-4.9,7.2-9.8,10.7-14.7c0.6-0.8,1.2-1.6,1.9-2.3c2.3-2.3,6-2.3,8.4-0.2
	c3.6,3,5.3,9,8.3,13.2c4.3,6.1,10.8,7.5,16.8,8.7c4.5,0.9,9,1.7,13.4,2.6c3,5.6,5.6,11.3,7.8,17.2
	C701.2,147.8,694.2,153.8,689.3,161.4z"/>
<path class="st2" d="M713.7,157.7c-0.9,2.7-1.4,5.5-1.5,8.4c-3.8-4.7-4.5-13.5-1.9-19.6C711.6,150.2,712.7,153.9,713.7,157.7z"/>
<path class="st2" d="M703.8,255.7c-3.4,6.8-7.3,13.4-11.7,19.5c-2.8-1.2-5.9,0.9-8.5,3c-2.8,2.1-6.1,4.2-8.9,2.3
	c-2.9-2-3.8-7.5-2.9-11.9c1.1-4,2.9-7.8,5.4-11.2c2.4-3.5,4.9-7.2,8.1-8.5c3.3-1.4,7.5,0.6,8.4,5.2l2.3-0.1
	c-1.3-1.8-0.6-5.5,1.1-6.1c2-0.8,3.8,2,5,4.5C702.7,253.5,703.3,254.6,703.8,255.7z"/>
<path class="st2" d="M614.9,222.6c-5,0.3-8.9-5.8-11.6-11.9s-5-13-9.5-16c-2.6-1.8-5.5-2-8.3-2.9c-3.2-0.8-5.8-3.1-7-6.2l-3.2-1.3
	c-4.4,2.2-8.5,5.1-12,8.6c-4,4.3-6.6,9.8-7.2,15.7c-0.6,6.3,1.6,13.4,5.8,15.8c3.3,1.9,7.1,0.7,10.5,2.4c4.2,2.2,6.6,8.4,7.6,14.6
	s0.7,12.6,1.4,18.8s2.5,12.7,6.3,15.9c4.8,4,11.8,0.7,14-6.6c1.1-3.6,1-7.6,1.8-11.3c1.4-6.5,5.1-11.4,8.1-16.7
	S616.8,228.8,614.9,222.6z"/>
<path class="st2" d="M565.6,158.5c0.5,0.4,0.9,0.9,1.3,1.4c0.8,1.5,0.8,3.3-0.1,4.7c1.2-0.1,2.3-0.6,3.1-1.6c0.9-1,1.7-2.2,2.4-3.4
	c0.6-0.8,0.9-1.9,0.7-2.9c-0.2-0.7-0.8-1-1.2-1.5c-0.5-1-0.9-2.1-1.1-3.2c-0.4-2.1-2-3.8-4.2-4.4l0.2,0c-0.9,0.5-1.3,1.5-1.1,2.5
	c0.2,1,0.8,1.8,0.7,2.8c-0.1,1.4-1.5,2.1-1.6,3.5C564.8,157.2,565.1,157.9,565.6,158.5z"/>
<path class="st2" d="M557,134.1L557,134.1c0.2-0.1,0.3-0.3,0.4-0.5L557,134.1z"/>
<path class="st2" d="M558.5,140.8c1.2-1.1,1.7-2.7,1.4-4.3c-0.4-1.6-1.6-2.7-2.8-2.4c-0.7,0.7-1.7,1-2.7,0.8
	c-0.7-0.2-1.5-0.7-2.2-0.1c-0.4,0.4-0.6,0.9-0.7,1.4c-0.2,0.7-0.5,1.4-0.7,2.2c-0.1,0.3-0.1,0.5-0.1,0.8c0.1,0.2,0.3,0.4,0.5,0.4
	c1.4,0.4,2.8,0.8,4.2,1.2C556.4,141.3,557.5,141.3,558.5,140.8z"/>
<path class="st2" d="M664.9,233.8c-0.7-1.1-1.3-2.1-2-3.2c-0.6-1.2-1.5-2.3-2.6-3.2c-1-0.8-2.4-0.7-3.2,0.3c0,0,0,0,0,0l0,0l0.1,0.6
	c1.7,1.9,2.9,4.2,3.4,6.7c0.1,1.1,0.1,2.2,0.2,3.3c0,1,0.5,2,1.2,2.7c1,0.7,2.2-0.3,3-1.6c0.7-1,0.9-2.2,0.8-3.4
	C665.7,235.2,665.4,234.5,664.9,233.8z"/>
<path class="st2" d="M675.1,235.2c0.1-1,0-2-0.2-3c0-1.3,0.3-2.6,1-3.7c0.7-1,1.2-2.2,1.5-3.4c0.1-0.5,0.1-1.1-0.1-1.7
	c-0.2-0.5-0.7-0.7-1-0.3l0.6,0.4c-0.9-0.2-1.8-0.1-2.6,0.1c-1,0.4-1.7,1.2-2,2.2c-0.1,0.8-0.3,1.6-0.5,2.3c-0.4,0.8-1.1,1-1.6,1.7
	c-0.6,1.2-0.6,2.7,0.1,3.9c0.6,1,1.5,1.7,2.6,2C673.7,236.2,674.7,236.2,675.1,235.2z"/>
<path class="st2" d="M693.3,240.7c0.3,0.7,0.7,1.4,1.1,2.1c0.9,0.9,2.1,0.3,3.1,0.1c2-0.3,3.9,0.5,5.1,2.1c-0.8-4.1-3.6-7.6-7.5-9.3
	c-2.5-0.9-5.1-1.3-7.7-1.2l-0.4,0.1C688.2,237.8,691.7,237.7,693.3,240.7z"/>
<path class="st2" d="M616.2,247.5L616.2,247.5l0.1-0.2L616.2,247.5z"/>
<path class="st2" d="M613.5,252.8c-0.6,1.1-1.1,2.2-1.5,3.4c-0.6,1.9-0.9,3.8-1.1,5.8c-0.1,1.1-0.2,2.6,0.5,3.1
	c0.4,0.3,1,0.2,1.3-0.2c0.4-0.4,0.7-0.9,0.9-1.4c1.4-2.4,2.5-4.9,3.2-7.6c0.8-2.8,0.6-5.8-0.5-8.5
	C615.3,249.3,614.4,251,613.5,252.8z"/>
<path class="st2" d="M586.8,110.5c0.9,0.9,2.2,1.1,3.4,0.7c1.2-0.5,2.3-1.2,3.2-2.1c0.8-0.6,1.4-1.3,1.9-2.1c0.6-1,0.7-2.2,0.4-3.3
	c-0.4-1.1-1.4-1.8-2.5-2c-1.6-0.5-3.1-0.9-4.7-1.4l1.1-1c-1.2-0.6-2.5,0.5-3.2,2c-0.5,0.9-0.8,1.9-1,3
	C585,106.4,585.5,108.7,586.8,110.5z"/>
<path class="st2" d="M614.5,101.2c0.9,1,2.5,1.1,3.5,0.3c0.9-0.7,1.5-1.7,1.6-2.8c0.1-1.2-0.5-2.6-1.4-2.7l0.2-1.2
	c-1.7-0.3-3.7-0.4-4.6,1.7C613.1,98.1,613.4,99.9,614.5,101.2z"/>
<path class="st2" d="M718.7,378.2c-12.9,0-27.1-0.5-42.5-1.5c-79.6-5.1-182.7-22.6-290.4-49.5c-107.6-26.9-206.9-59.8-279.6-92.7
	c-35.4-16-62.6-31.2-80.7-45.1c-19.2-14.7-27.7-27.6-25-38.2c5.1-20.6,50.7-25.1,88.1-25.3l0,3c-51.3,0.2-81.5,8.4-85.2,23
	c-4.7,18.6,33.3,47.7,104.1,79.8c72.5,32.9,171.6,65.7,279.1,92.6c107.5,26.8,210.4,44.4,289.8,49.4c77.6,4.9,124.7-2.9,129.4-21.6
	c3.9-15.5-21.6-38.3-71.7-64.2l1.4-2.7c36.4,18.8,78.6,45.9,73.2,67.6c-2.6,10.6-16.1,18-40,21.9C755,377.1,738.3,378.2,718.7,378.2
	z"/>
<path class="st2" d="M226,382.1c-35.6,0-68.7-1.2-98.3-3.7c-38.7-3.2-69.4-8.4-91.2-15.4c-23.1-7.4-35.3-16.7-36.4-27.5
	c-2.1-21.2,39.3-40.7,74.4-53.4l1,2.8c-48.2,17.4-74,35.3-72.5,50.3c1.9,19.1,47.4,33.8,124.9,40.2c79.3,6.6,183.7,4.3,293.9-6.6
	C532.1,358,634.9,339.9,711.5,318c74.7-21.4,116.5-44.7,114.6-63.8c-1.6-15.9-33.2-28.8-89.1-36.4l0.4-3
	c40.6,5.5,89.5,16.8,91.7,39.1c1.1,10.9-9.1,22.3-30.3,34.1c-20,11.1-49.1,22.2-86.5,32.9c-76.7,22-179.7,40.1-290.1,50.9
	C352.9,378.6,285.9,382.1,226,382.1z"/>
<circle class="st2" cx="437.8" cy="428" r="17.5"/>
<circle class="st2" cx="93.6" cy="324.8" r="17.5"/>
<circle class="st2" cx="414.6" cy="63.6" r="10.7"/>
<circle class="st2" cx="349.8" cy="137.6" r="17.5"/>
</svg>
