<?xml version="1.0" encoding="utf-8"?>
<!-- Generator: Adobe Illustrator 26.0.3, SVG Export Plug-In . SVG Version: 6.00 Build 0)  -->
<svg version="1.1" id="Layer_1" xmlns="http://www.w3.org/2000/svg" xmlns:xlink="http://www.w3.org/1999/xlink" x="0px" y="0px"
	 viewBox="0 0 692 499.9" style="enable-background:new 0 0 692 499.9;" xml:space="preserve">
<style type="text/css">
	.st0{fill:#3F3D56;}
	.st1{fill:#2F2E41;}
	.st2{fill:#FFB8B8;}
	.st3{fill:#6C63FF;}
	.st4{fill:#231F20;}
</style>
<path class="st0" d="M691,496H1c-0.6,0-1-0.4-1-1s0.4-1,1-1h690c0.6,0,1,0.4,1,1S691.6,496,691,496z"/>
<path class="st0" d="M622.7,321.6h-406c-3.6,0-6.5,2.9-6.5,6.5s2.9,6.5,6.5,6.5h11.5v155.5c0,3.6,2.9,6.5,6.5,6.5s6.5-2.9,6.5-6.5
	l0.1-155.5h355.9v155.5c0,3.6,2.9,6.5,6.5,6.5s6.5-2.9,6.5-6.5V338.1l1.9-3.4h10.6c3.6,0,6.5-2.9,6.5-6.5S626.3,321.6,622.7,321.6z"
	/>
<path class="st0" d="M441.8,325h-123c-5,0-9-4-9-9v-67.7c0-5,4-9,9-9h123c5,0,9,4,9,9v67.7C450.8,321,446.8,325,441.8,325z"/>
<path class="st0" d="M441.8,246.3h-123c-1.1,0-2.1,0.9-2.1,2.1v67.7c0,1.1,0.9,2.1,2.1,2.1h123c1.1,0,2.1-0.9,2.1-2.1v-67.7
	C443.9,247.2,442.9,246.3,441.8,246.3z"/>
<path class="st1" d="M390.8,294.2c0,0-14.7-3.4-22.8,2.8s10.3,20.4,10.3,20.4L390.8,294.2z"/>
<circle class="st2" cx="381" cy="273.9" r="13.9"/>
<path class="st1" d="M370.3,254.4c1.9-3.2,5.4-5.1,9.1-4.9c1.9,0.2,3.8,0.8,5.5,1.5l9.1,3.5c2.3,0.9,4.9,2,5.9,4.3
	c0.9,2.1,0.2,4.6-0.5,6.8l-3.4,10.6c-0.4-2.4-1-4.7-1.9-7c-0.9-2.3-2.6-4.2-4.7-5.4c-2.4-1.2-5.1-1.2-7.8-1.1
	c-3.7,0.2-7.8,0.7-10.5,3.3c-1.4,1.5-2.4,3.4-2.8,5.4c-0.4,2-0.6,4.1-0.6,6.1c-1.5-2.6-2.8-5.4-3.9-8.3c-0.9-2.1-1.3-4.4-1.4-6.7
	c-0.1-2.3,0.7-4.6,2.2-6.4c1.5-1.8,3.9-2.5,6.2-2L370.3,254.4z"/>
<path class="st3" d="M414.2,306.3c-0.3-1-1.1-1.7-2.1-1.8c0,0-0.1,0-0.1-0.1l-20.7-11.6c-1.2-0.7-2.8-0.3-3.5,0.9l-5.7,9.2l-8.5-8.5
	l-0.1-0.1c-0.9-0.9-2.3-1-3.4-0.3l-17,11.9c0,0-0.1,0-0.1,0c-1.7,0.3-2.9,1.7-3,3.4l-0.4,8.9h68L414.2,306.3z"/>
<path class="st0" d="M452.2,316.8H439c0-0.8-0.6-1.4-1.4-1.4l0,0h-4.1c-0.8,0-1.4,0.6-1.4,1.4H428c0-0.8-0.6-1.4-1.4-1.4h-4.1
	c-0.8,0-1.4,0.6-1.4,1.4l0,0h-4.1c0-0.8-0.6-1.4-1.4-1.4l0,0h-4.1c-0.8,0-1.4,0.6-1.4,1.4h-4.1c0-0.8-0.6-1.4-1.4-1.4h-4.1
	c-0.8,0-1.4,0.6-1.4,1.4l0,0h-4.1c0-0.8-0.6-1.4-1.4-1.4l0,0h-4.1c-0.8,0-1.4,0.6-1.4,1.4l0,0h-4.1c0-0.8-0.6-1.4-1.4-1.4h-4.1
	c-0.8,0-1.4,0.6-1.4,1.4h-4.1c0-0.8-0.6-1.4-1.4-1.4l0,0h-4.1c-0.8,0-1.4,0.6-1.4,1.4l0,0h-4.1c0-0.8-0.6-1.4-1.4-1.4l0,0h-4.1
	c-0.8,0-1.4,0.6-1.4,1.4h-4.1c0-0.8-0.6-1.4-1.4-1.4h-4.1c-0.8,0-1.4,0.6-1.4,1.4l0,0h-4.1c0-0.8-0.6-1.4-1.4-1.4l0,0H334
	c-0.8,0-1.4,0.6-1.4,1.4h-4.1c0-0.8-0.6-1.4-1.4-1.4H323c-0.8,0-1.4,0.6-1.4,1.4l0,0h-13.1c-2.3,0-4.1,1.9-4.1,4.2
	c0,2.3,1.9,4.1,4.1,4.1h143.7c2.3,0,4.1-1.9,4.1-4.2C456.3,318.6,454.4,316.8,452.2,316.8z"/>
<path class="st3" d="M287.1,292.7v27.5h-69c-7.6,0.3-14-5.7-14.2-13.3s5.7-14,13.3-14.2c0.3,0,0.6,0,1,0L287.1,292.7z"/>
<path class="st3" d="M288.8,320c0,0.6-0.5,1.1-1.1,1.1h-70.8c-8,0-14.5-6.5-14.5-14.5c0-8,6.5-14.5,14.5-14.5h70.8
	c0.6,0,1.1,0.5,1.1,1.1s-0.5,1.1-1.1,1.1h-70.8c-6.8,0-12.4,5.6-12.4,12.4c0,6.8,5.5,12.4,12.4,12.4h70.8
	C288.3,318.9,288.8,319.4,288.8,320z"/>
<path class="st3" d="M287.1,299H213c-0.1,0-0.2-0.1-0.2-0.2c0-0.1,0.1-0.2,0.2-0.2c0,0,0,0,0,0h74.1c0.1,0,0.2,0.1,0.2,0.2
	C287.3,298.9,287.2,299,287.1,299z"/>
<path class="st3" d="M287.1,304.1H213c-0.1,0-0.2-0.1-0.2-0.2c0-0.1,0.1-0.2,0.2-0.2c0,0,0,0,0,0h74.1c0.1,0,0.2,0.1,0.2,0.2
	C287.3,304,287.2,304.1,287.1,304.1z"/>
<path class="st3" d="M287.1,309.2H213c-0.1,0-0.2-0.1-0.2-0.2c0-0.1,0.1-0.2,0.2-0.2c0,0,0,0,0,0h74.1c0.1,0,0.2,0.1,0.2,0.2
	C287.3,309.1,287.2,309.2,287.1,309.2z"/>
<path class="st3" d="M287.1,314.3H213c-0.1,0-0.2-0.1-0.2-0.2c0-0.1,0.1-0.2,0.2-0.2c0,0,0,0,0,0h74.1c0.1,0,0.2,0.1,0.2,0.2
	C287.3,314.2,287.2,314.3,287.1,314.3z"/>
<path class="st0" d="M274.1,263.7v27.5h-69c-7.6,0.3-14-5.7-14.2-13.3s5.7-14,13.3-14.2c0.3,0,0.6,0,1,0H274.1z"/>
<path class="st0" d="M275.8,291c0,0.6-0.5,1.1-1.1,1.1h-70.8c-8,0-14.5-6.5-14.5-14.5s6.5-14.5,14.5-14.5h70.8
	c0.6,0,1.1,0.5,1.1,1.1s-0.5,1.1-1.1,1.1h-70.8c-6.8,0-12.4,5.5-12.4,12.4c0,6.8,5.5,12.4,12.4,12.4h70.8
	C275.3,289.9,275.8,290.4,275.8,291z"/>
<path class="st0" d="M274.1,270H200c-0.1,0-0.2-0.1-0.2-0.2c0-0.1,0.1-0.2,0.2-0.2c0,0,0,0,0,0h74.1c0.1,0,0.2,0.1,0.2,0.2
	C274.3,269.9,274.2,270,274.1,270z"/>
<path class="st0" d="M274.1,275.1H200c-0.1,0-0.2-0.1-0.2-0.2c0-0.1,0.1-0.2,0.2-0.2c0,0,0,0,0,0h74.1c0.1,0,0.2,0.1,0.2,0.2
	C274.3,275,274.2,275.1,274.1,275.1z"/>
<path class="st0" d="M274.1,280.2H200c-0.1,0-0.2-0.1-0.2-0.2c0-0.1,0.1-0.2,0.2-0.2c0,0,0,0,0,0h74.1c0.1,0,0.2,0.1,0.2,0.2
	C274.3,280.1,274.2,280.2,274.1,280.2z"/>
<path class="st0" d="M274.1,285.3H200c-0.1,0-0.2-0.1-0.2-0.2c0-0.1,0.1-0.2,0.2-0.2c0,0,0,0,0,0h74.1c0.1,0,0.2,0.1,0.2,0.2
	C274.3,285.2,274.2,285.3,274.1,285.3z"/>
<path class="st3" d="M250.1,195V19.5c0-4.2,3.4-7.5,7.5-7.5h138.7c4.2,0,7.5,3.4,7.5,7.5V195c0,4.2-3.4,7.5-7.5,7.5H257.6
	C253.5,202.5,250.1,199.2,250.1,195z M257.6,13.7c-3.2,0-5.8,2.6-5.9,5.9V195c0,3.2,2.6,5.8,5.9,5.9h138.7c3.2,0,5.8-2.6,5.8-5.9
	V19.5c0-3.2-2.6-5.8-5.8-5.9H257.6z"/>
<path class="st3" d="M334.8,92.6v-36c0-2.1,1.7-3.8,3.8-3.8h30.5c2.1,0,3.8,1.7,3.8,3.8v36c0,2.1-1.7,3.8-3.8,3.8h-30.5
	C336.5,96.4,334.8,94.7,334.8,92.6z"/>
<path class="st3" d="M275.4,109.3v-36c0-2.1,1.7-3.8,3.8-3.8h30.5c2.1,0,3.8,1.7,3.8,3.8v36c0,2.1-1.7,3.8-3.8,3.8h-30.5
	C277.1,113.1,275.4,111.4,275.4,109.3z"/>
<path class="st3" d="M323.1,160.3v-36c0-2.1,1.7-3.8,3.8-3.8h30.5c2.1,0,3.8,1.7,3.8,3.8v36c0,2.1-1.7,3.8-3.8,3.8h-30.5
	C324.8,164,323.1,162.4,323.1,160.3z"/>
<path class="st0" d="M505.6,313h-31.4c-0.3,0-0.6,0.1-0.9,0.2l-7.9,4c-0.7,0.3-1.1,1.2-0.8,1.9c0.1,0.3,0.4,0.6,0.8,0.8l7.9,4
	c0.3,0.1,0.6,0.2,0.9,0.2h31.4c0.9,0.1,1.7-0.6,1.7-1.5v-7.9C507.2,313.7,506.5,313,505.6,313z"/>
<path class="st3" d="M507.3,314.6v7.9c-0.1,0.9-0.8,1.6-1.7,1.5h-6.3v-11h6.3C506.5,313,507.2,313.7,507.3,314.6z"/>
<path class="st2" d="M505.3,253.6c5.6-2.4,12.1,0.2,14.5,5.7c0.2,0.4,0.3,0.8,0.4,1.2c0.1,0.5,0.2,0.9,0.3,1.4l43.9,21.8l10.2-6.7
	l12.7,14.6l-15.5,12.6c-3.8,3.1-9.2,3.3-13.3,0.5l-44.6-30.8c-0.3,0.1-0.7,0.3-1,0.4c-5.8,1.8-12-1.5-13.7-7.3
	c-0.1-0.4-0.2-0.8-0.3-1.2c-0.1-0.4-0.1-0.9-0.2-1.3C498.4,259.8,501.1,255.5,505.3,253.6z"/>
<path class="st0" d="M596.8,387.8h-48c0,1.4-49.5,2.5-49.5,2.5c-0.8,0.6-1.5,1.3-2.1,2c-1.9,2.2-2.9,5.1-2.9,8v2
	c0,6.9,5.6,12.5,12.5,12.5h90c6.9,0,12.5-5.6,12.5-12.5v-2C609.3,393.4,603.7,387.8,596.8,387.8z"/>
<rect x="544.6" y="414.3" class="st0" width="13" height="84"/>
<path class="st0" d="M507.6,497.8c0,1.4,19.7,0.5,44,0.5s44,0.9,44-0.5s-19.7-12.5-44-12.5S507.6,496.4,507.6,497.8z"/>
<polygon class="st2" points="519.4,488 507.1,488 501.3,456.2 519.4,456.2 "/>
<path class="st1" d="M522.5,499.9l-39.5,0v-0.5c0-8.5,6.9-15.4,15.4-15.4c0,0,0,0,0,0h0l24.1,0L522.5,499.9z"/>
<path class="st1" d="M501,468.3l-24.4-54.8c-4.2-9.6-0.4-20.8,8.8-25.8l53-28.4l24.2-2.1l22.3-2l0.2,0.3c0.2,0.3,5,8.6,1.8,17.7
	c-2.5,6.9-8.9,12.3-19,16c-23.7,8.7-51.1,16.1-61.8,18.9c-1,0.2-1.8,0.9-2.2,1.8c-0.5,0.9-0.5,1.9-0.2,2.8l22.7,51
	c0.9,2.3-0.3,4.9-2.7,5.8c-0.4,0.1-0.7,0.2-1.1,0.3l-17,1.2c-0.1,0-0.3,0-0.4,0C503.3,470.9,501.7,469.9,501,468.3z"/>
<polygon class="st2" points="525.4,488 513.1,488 507.3,456.2 525.4,456.2 "/>
<path class="st1" d="M528.5,499.9l-39.5,0v-0.5c0-8.5,6.9-15.4,15.4-15.4c0,0,0,0,0,0h0l24.1,0L528.5,499.9z"/>
<path class="st1" d="M508,471.3l-24.4-54.8c-4.2-9.6-0.4-20.8,8.8-25.8l53-28.4l24.2-2.1l22.3-2l0.2,0.3c0.2,0.3,5,8.6,1.8,17.7
	c-2.5,6.9-8.9,12.3-19,16c-23.7,8.7-51.1,16.1-61.8,18.9c-1,0.2-1.8,0.9-2.2,1.8c-0.5,0.9-0.5,1.9-0.2,2.8l22.7,51
	c0.9,2.3-0.3,4.9-2.7,5.8c-0.4,0.1-0.7,0.2-1.1,0.3l-17,1.2c-0.1,0-0.3,0-0.4,0C510.3,473.9,508.7,472.9,508,471.3z"/>
<path class="st0" d="M495.8,303.8c-10.3-13.7-18.4-28.8-24.1-44.9c-0.7-2,0.2-4.2,2-5.2l35.1-18.8c1.2-0.6,2.5-0.7,3.7-0.2
	c1.2,0.5,2.1,1.6,2.5,2.9c4.1,15.5,11.8,29.9,22.4,41.9c0.9,1,1.3,2.3,1,3.6c-0.2,1.3-1,2.4-2.2,3L501.3,305
	C499.4,306,497.1,305.5,495.8,303.8z"/>
<path class="st0" d="M498.2,302c0.4,0.5,1.1,0.6,1.6,0.3l35.1-18.8c0.3-0.2,0.6-0.5,0.7-0.9c0.1-0.4,0-0.8-0.3-1.1
	c-11-12.4-18.9-27.1-23.1-43.1c-0.1-0.4-0.4-0.7-0.8-0.9c-0.4-0.2-0.8-0.1-1.1,0l-35.1,18.8c-0.5,0.3-0.8,0.9-0.6,1.5
	C480.2,273.7,488.1,288.6,498.2,302z"/>
<path class="st3" d="M612.6,298.8l-27.5,10.5l-6.7-18.7c-1.8-5.1,0.3-10.8,5-13.5l0,0c4.8-2.7,10.8-1.5,14.3,2.8L612.6,298.8z"/>
<path class="st3" d="M542.6,372.8c-1.2-0.8-1.9-2.1-2.1-3.5c-3.5-32.9-1.1-58.7,7.5-78.7c3.1-7,9.2-12.2,16.6-14.2l22.2-1.1l0.1,0.1
	c10.3,5,16.1,16.3,14.2,27.6c-7.2,18.9-13.1,38.5-8.6,54.3c0.4,1.3,0.2,2.8-0.5,4c-0.7,1.2-1.8,2-3.1,2.3l-42.4,10.1
	C545.2,373.9,543.7,373.6,542.6,372.8L542.6,372.8z"/>
<circle class="st2" cx="579.4" cy="242.3" r="24.6"/>
<path class="st3" d="M516.1,263.2l-23,10.2c-1.8,0.8-4,0-4.8-1.8l-0.6-1.3c-0.8-1.8,0-4,1.8-4.8l23-10.2c1.8-0.8,4,0,4.8,1.8
	l0.6,1.3C518.7,260.2,517.9,262.4,516.1,263.2z"/>
<path class="st3" d="M518.2,274.8l-19.1,8.4c-1.5,0.7-3.3,0-4-1.5l-0.5-1.1c-0.7-1.5,0-3.3,1.5-4l19.1-8.4c1.5-0.7,3.3,0,4,1.5
	l0.5,1.1C520.4,272.3,519.8,274.1,518.2,274.8z"/>
<path class="st2" d="M533,325.6l-42.7-33.7c-0.3,0.1-0.7,0.2-1,0.3c-3,0.7-6.3,0.1-8.8-1.7c-2.6-1.8-4.3-4.6-4.6-7.7
	c-0.6-5.1,2.4-9.9,7.2-11.6c5.7-2.1,12,0.9,14.1,6.6c0.1,0.4,0.3,0.8,0.4,1.2c0.1,0.5,0.2,1,0.2,1.5l42.5,24.5l10.6-6.1l11.7,15.3
	l-16.4,11.7C542.1,328.7,536.8,328.5,533,325.6z"/>
<path class="st3" d="M567.7,318.9l-24.3-16.6l11.4-16.2c3.1-4.4,9-6,13.9-3.6l0,0c5,2.4,7.5,8,5.9,13.3L567.7,318.9z"/>
<path class="st1" d="M570.4,238.7c-6.3,4.3-14.6,8.8-21,4.2c-4.2-3-5.6-8.6-3.9-13.5c3.1-8.8,11.6-12.7,19.7-15.7
	c10.5-3.9,22-7,32.9-4.2s20.5,13.3,18.5,24.4c-1.6,8.9-10,16.3-8.8,25.2c1.2,9,11.3,13.8,20.3,15.4s19,2.1,25.4,8.6
	c8.2,8.2,6.2,22.9-1.6,31.5s-19.4,12.6-30.7,15.2c-15,3.5-31.1,5.4-45.3-0.5s-25.3-21.7-21.1-36.5c1.7-6.3,5.8-11.5,9.8-16.7
	s8-10.5,9.5-16.8c1.3-5.3,0.3-11.4-3.2-15.3c-1.3-1.4-1.5-3.5-0.6-5.2L570.4,238.7z"/>
<path class="st3" d="M107.6,357c-13.7,4.8-28.8,2.1-40-7c-14-11.8-18.4-31.1-22-49.1c-3.5-17.7-7.1-35.4-10.6-53.1L57.1,263
	c15.9,11,32.2,22.3,43.2,38.2c11,15.9,15.8,37.6,7,54.7"/>
<path class="st4" d="M107.3,418.6c2.1-15.4,4.3-31,2.8-46.5c-1.3-13.8-5.5-27.3-14.1-38.4c-4.6-5.9-10.1-10.9-16.4-14.8
	c-1.6-1-3.1,1.6-1.5,2.6c10.9,6.9,19.3,17,24,29c5.2,13.3,6.1,27.8,5.2,41.9c-0.5,8.5-1.7,17-2.9,25.5c-0.2,0.8,0.3,1.6,1,1.8
	C106.2,419.8,107.1,419.4,107.3,418.6L107.3,418.6z"/>
<path class="st3" d="M129.3,450.7c-0.7-8.6-6.2-16-14.2-19.3v-11H96.6v11.4c-7.6,3.5-12.7,10.7-13.4,19l-4.4,50.6h54.7L129.3,450.7z
	"/>
</svg>
