<svg width="36" height="36" viewBox="0 0 36 36" fill="none" xmlns="http://www.w3.org/2000/svg">
<path d="M14.6268 13.3884C14.6122 13.8314 14.6849 14.2729 14.8409 14.6878C14.9969 15.1026 15.233 15.4827 15.5359 15.8063C15.8388 16.1299 16.2024 16.3906 16.6061 16.5737C17.0097 16.7567 17.4454 16.8585 17.8884 16.8732C18.3314 16.8878 18.7729 16.8151 19.1878 16.6591C19.6026 16.5031 19.9827 16.267 20.3063 15.9641C20.6299 15.6612 20.8906 15.2976 21.0737 14.8939C21.2567 14.4903 21.3585 14.0546 21.3732 13.6116C21.3878 13.1686 21.3151 12.7271 21.1591 12.3122C21.0031 11.8974 20.767 11.5173 20.4641 11.1937C20.1612 10.8701 19.7976 10.6094 19.3939 10.4263C18.9903 10.2433 18.5546 10.1415 18.1116 10.1268C17.6686 10.1122 17.2271 10.1849 16.8122 10.3409C16.3974 10.4969 16.0173 10.733 15.6937 11.0359C15.3701 11.3388 15.1094 11.7024 14.9263 12.1061C14.7433 12.5097 14.6415 12.9454 14.6268 13.3884Z" stroke="white" stroke-width="1.5" stroke-linecap="round" stroke-linejoin="round"/>
<path d="M18 21.375C16.555 21.375 15.1424 21.8025 13.9409 22.6035C12.7394 23.4045 11.803 24.543 11.25 25.875" stroke="white" stroke-width="1.5" stroke-linecap="round" stroke-linejoin="round"/>
<path d="M28.125 23.625C28.5392 23.625 28.875 23.2892 28.875 22.875C28.875 22.4608 28.5392 22.125 28.125 22.125V23.625ZM22.125 22.125C21.7108 22.125 21.375 22.4608 21.375 22.875C21.375 23.2892 21.7108 23.625 22.125 23.625V22.125ZM28.125 22.125H22.125V23.625H28.125V22.125Z" fill="white"/>
<path d="M24.375 25.875C24.375 26.2892 24.7108 26.625 25.125 26.625C25.5392 26.625 25.875 26.2892 25.875 25.875H24.375ZM25.875 19.875C25.875 19.4608 25.5392 19.125 25.125 19.125C24.7108 19.125 24.375 19.4608 24.375 19.875H25.875ZM25.875 25.875V19.875H24.375V25.875H25.875Z" fill="white"/>
</svg>
